<svg width="24" height="24" viewBox="0 0 24 24" fill="none" xmlns="http://www.w3.org/2000/svg">
<path fill-rule="evenodd" clip-rule="evenodd" d="M19.9381 13C19.446 16.9463 16.0796 20 12 20C7.92038 20 4.55399 16.9463 4.06189 13H8.95935C9.37926 14.2776 10.5819 15.2 12 15.2C13.4181 15.2 14.6207 14.2776 15.0407 13H19.9381ZM19.9381 11H15.0406C14.6207 9.72242 13.4181 8.8 12 8.8C10.5819 8.8 9.37928 9.72242 8.95936 11H4.0619C4.554 7.05368 7.92039 4 12 4C16.0796 4 19.446 7.05368 19.9381 11ZM4 12L4.00001 11.9888V12.0112L4 12ZM22 12C22 17.5229 17.5229 22 12 22C6.47715 22 2 17.5229 2 12C2 6.47715 6.47715 2 12 2C17.5229 2 22 6.47715 22 12ZM13.2 12C13.2 12.6627 12.6627 13.2 12 13.2C11.3373 13.2 10.8 12.6627 10.8 12C10.8 11.3373 11.3373 10.8 12 10.8C12.6627 10.8 13.2 11.3373 13.2 12Z" fill="#6F767E"/>
</svg>
